<svg width="60" height="19" viewBox="0 0 60 19" fill="none" xmlns="http://www.w3.org/2000/svg">
<g filter="url(#filter0_d_1_2)">
<path d="M6.336 1.616V1.844C6.144 1.852 5.984 1.884 5.856 1.94C5.728 1.996 5.628 2.108 5.556 2.276C5.492 2.444 5.444 2.696 5.412 3.032C5.388 3.368 5.376 3.82 5.376 4.388C5.376 4.924 5.328 5.372 5.232 5.732C5.144 6.092 5.02 6.384 4.86 6.608C4.7 6.832 4.516 7.008 4.308 7.136C4.1 7.256 3.884 7.348 3.66 7.412C3.884 7.476 4.1 7.572 4.308 7.7C4.516 7.82 4.7 7.992 4.86 8.216C5.02 8.44 5.144 8.732 5.232 9.092C5.328 9.452 5.376 9.9 5.376 10.436C5.376 11.028 5.388 11.496 5.412 11.84C5.444 12.184 5.492 12.44 5.556 12.608C5.628 12.784 5.728 12.896 5.856 12.944C5.984 13 6.144 13.028 6.336 13.028V13.256C5.832 13.256 5.428 13.172 5.124 13.004C4.828 12.844 4.616 12.56 4.488 12.152C4.36 11.744 4.296 11.172 4.296 10.436C4.296 9.684 4.268 9.104 4.212 8.696C4.164 8.28 4.076 7.984 3.948 7.808C3.82 7.632 3.632 7.536 3.384 7.52H3.324V7.304H3.384C3.632 7.288 3.82 7.196 3.948 7.028C4.076 6.852 4.164 6.556 4.212 6.14C4.268 5.724 4.296 5.14 4.296 4.388C4.296 3.684 4.36 3.132 4.488 2.732C4.616 2.324 4.828 2.036 5.124 1.868C5.428 1.7 5.832 1.616 6.336 1.616ZM13.1968 2.504V2.744C12.9248 2.752 12.7168 2.784 12.5728 2.84C12.4368 2.888 12.3448 2.984 12.2968 3.128C12.2488 3.264 12.2248 3.48 12.2248 3.776V9.728C12.2248 10.016 12.2488 10.232 12.2968 10.376C12.3448 10.52 12.4368 10.616 12.5728 10.664C12.7168 10.712 12.9248 10.744 13.1968 10.76V11C13.0128 10.984 12.7808 10.976 12.5008 10.976C12.2288 10.968 11.9528 10.964 11.6728 10.964C11.3608 10.964 11.0688 10.968 10.7968 10.976C10.5248 10.976 10.3048 10.984 10.1368 11V10.76C10.4088 10.744 10.6128 10.712 10.7488 10.664C10.8928 10.616 10.9888 10.52 11.0368 10.376C11.0848 10.232 11.1088 10.016 11.1088 9.728V3.776C11.1088 3.48 11.0848 3.264 11.0368 3.128C10.9888 2.984 10.8928 2.888 10.7488 2.84C10.6128 2.784 10.4088 2.752 10.1368 2.744V2.504C10.3048 2.512 10.5248 2.52 10.7968 2.528C11.0688 2.536 11.3608 2.54 11.6728 2.54C11.9528 2.54 12.2288 2.536 12.5008 2.528C12.7808 2.52 13.0128 2.512 13.1968 2.504ZM15.9089 2.828V4.832H17.6849V5.072H15.9089V9.716C15.9089 10.092 15.9769 10.356 16.1129 10.508C16.2489 10.66 16.4369 10.736 16.6769 10.736C16.9169 10.736 17.1249 10.64 17.3009 10.448C17.4769 10.248 17.6289 9.916 17.7569 9.452L17.9969 9.512C17.9169 9.976 17.7569 10.368 17.5169 10.688C17.2849 11.008 16.9249 11.168 16.4369 11.168C16.1649 11.168 15.9409 11.132 15.7649 11.06C15.5889 10.996 15.4329 10.9 15.2969 10.772C15.1209 10.588 14.9969 10.368 14.9249 10.112C14.8609 9.856 14.8289 9.516 14.8289 9.092V5.072H13.6769V4.832H14.8289V2.996C15.0289 2.988 15.2209 2.972 15.4049 2.948C15.5889 2.924 15.7569 2.884 15.9089 2.828ZM20.3671 4.652C20.6871 4.652 20.9591 4.704 21.1831 4.808C21.4071 4.912 21.5711 5.008 21.6751 5.096C21.9391 5.312 22.0991 5.168 22.1551 4.664H22.4311C22.4151 4.888 22.4031 5.156 22.3951 5.468C22.3871 5.772 22.3831 6.184 22.3831 6.704H22.1071C22.0591 6.408 21.9751 6.12 21.8551 5.84C21.7431 5.56 21.5751 5.332 21.3511 5.156C21.1271 4.972 20.8351 4.88 20.4751 4.88C20.1951 4.88 19.9591 4.96 19.7671 5.12C19.5831 5.272 19.4911 5.5 19.4911 5.804C19.4911 6.044 19.5631 6.252 19.7071 6.428C19.8511 6.596 20.0391 6.756 20.2711 6.908C20.5031 7.052 20.7551 7.212 21.0271 7.388C21.3311 7.58 21.6071 7.776 21.8551 7.976C22.1031 8.176 22.2991 8.396 22.4431 8.636C22.5951 8.876 22.6711 9.16 22.6711 9.488C22.6711 9.856 22.5751 10.164 22.3831 10.412C22.1911 10.66 21.9391 10.848 21.6271 10.976C21.3231 11.104 20.9871 11.168 20.6191 11.168C20.4431 11.168 20.2751 11.152 20.1151 11.12C19.9631 11.096 19.8151 11.056 19.6711 11C19.5911 10.96 19.5071 10.912 19.4191 10.856C19.3391 10.8 19.2591 10.74 19.1791 10.676C19.0991 10.612 19.0271 10.616 18.9631 10.688C18.8991 10.752 18.8511 10.884 18.8191 11.084H18.5431C18.5591 10.828 18.5711 10.516 18.5791 10.148C18.5871 9.78 18.5911 9.292 18.5911 8.684H18.8671C18.9231 9.132 19.0031 9.524 19.1071 9.86C19.2111 10.196 19.3751 10.46 19.5991 10.652C19.8231 10.836 20.1351 10.928 20.5351 10.928C20.6951 10.928 20.8551 10.892 21.0151 10.82C21.1831 10.748 21.3231 10.628 21.4351 10.46C21.5471 10.292 21.6031 10.068 21.6031 9.788C21.6031 9.436 21.4751 9.148 21.2191 8.924C20.9631 8.7 20.6391 8.464 20.2471 8.216C19.9591 8.032 19.6871 7.848 19.4311 7.664C19.1831 7.48 18.9791 7.272 18.8191 7.04C18.6671 6.808 18.5911 6.528 18.5911 6.2C18.5911 5.84 18.6711 5.548 18.8311 5.324C18.9991 5.092 19.2191 4.924 19.4911 4.82C19.7631 4.708 20.0551 4.652 20.3671 4.652ZM27.3183 4.652C27.5343 4.652 27.7223 4.696 27.8823 4.784C28.0503 4.872 28.1783 4.988 28.2663 5.132C28.3623 5.268 28.4103 5.424 28.4103 5.6C28.4103 5.8 28.3463 5.976 28.2183 6.128C28.0983 6.28 27.9343 6.356 27.7263 6.356C27.5583 6.356 27.4103 6.304 27.2823 6.2C27.1543 6.088 27.0903 5.932 27.0903 5.732C27.0903 5.58 27.1303 5.452 27.2103 5.348C27.2983 5.236 27.3943 5.148 27.4983 5.084C27.4423 5.004 27.3583 4.964 27.2463 4.964C26.9983 4.964 26.7703 5.04 26.5623 5.192C26.3543 5.336 26.1783 5.524 26.0343 5.756C25.8903 5.988 25.7783 6.236 25.6983 6.5C25.6183 6.756 25.5783 6.996 25.5783 7.22V9.764C25.5783 10.156 25.6903 10.42 25.9143 10.556C26.1463 10.684 26.4583 10.748 26.8503 10.748V11C26.6663 10.992 26.4063 10.984 26.0703 10.976C25.7343 10.96 25.3783 10.952 25.0023 10.952C24.7303 10.952 24.4583 10.96 24.1863 10.976C23.9223 10.984 23.7223 10.992 23.5863 11V10.748C23.9143 10.748 24.1463 10.688 24.2823 10.568C24.4263 10.448 24.4983 10.22 24.4983 9.884V6.128C24.4983 5.768 24.4343 5.504 24.3063 5.336C24.1783 5.16 23.9383 5.072 23.5863 5.072V4.82C23.8423 4.844 24.0903 4.856 24.3303 4.856C24.5623 4.856 24.7823 4.844 24.9903 4.82C25.2063 4.788 25.4023 4.744 25.5783 4.688V6.188C25.6663 5.956 25.7903 5.724 25.9503 5.492C26.1183 5.252 26.3183 5.052 26.5503 4.892C26.7823 4.732 27.0383 4.652 27.3183 4.652ZM30.634 11.084C30.306 11.084 30.022 11.024 29.782 10.904C29.542 10.776 29.358 10.6 29.23 10.376C29.11 10.152 29.05 9.892 29.05 9.596C29.05 9.244 29.13 8.956 29.29 8.732C29.458 8.508 29.67 8.328 29.926 8.192C30.182 8.056 30.45 7.944 30.73 7.856C31.018 7.76 31.29 7.672 31.546 7.592C31.802 7.504 32.01 7.404 32.17 7.292C32.338 7.18 32.422 7.032 32.422 6.848V6.104C32.422 5.768 32.37 5.512 32.266 5.336C32.17 5.16 32.038 5.044 31.87 4.988C31.702 4.924 31.514 4.892 31.306 4.892C31.106 4.892 30.89 4.92 30.658 4.976C30.434 5.032 30.254 5.148 30.118 5.324C30.27 5.356 30.402 5.436 30.514 5.564C30.626 5.692 30.682 5.856 30.682 6.056C30.682 6.256 30.618 6.416 30.49 6.536C30.362 6.648 30.198 6.704 29.998 6.704C29.766 6.704 29.594 6.632 29.482 6.488C29.378 6.336 29.326 6.168 29.326 5.984C29.326 5.776 29.378 5.608 29.482 5.48C29.586 5.352 29.718 5.232 29.878 5.12C30.062 4.992 30.298 4.884 30.586 4.796C30.882 4.7 31.214 4.652 31.582 4.652C31.91 4.652 32.19 4.692 32.422 4.772C32.654 4.844 32.846 4.952 32.998 5.096C33.206 5.288 33.342 5.524 33.406 5.804C33.47 6.076 33.502 6.404 33.502 6.788V10.124C33.502 10.324 33.53 10.468 33.586 10.556C33.65 10.644 33.746 10.688 33.874 10.688C33.962 10.688 34.046 10.668 34.126 10.628C34.206 10.588 34.302 10.524 34.414 10.436L34.546 10.64C34.378 10.768 34.218 10.876 34.066 10.964C33.914 11.044 33.71 11.084 33.454 11.084C33.222 11.084 33.03 11.044 32.878 10.964C32.726 10.884 32.61 10.768 32.53 10.616C32.458 10.456 32.422 10.256 32.422 10.016C32.206 10.376 31.946 10.644 31.642 10.82C31.346 10.996 31.01 11.084 30.634 11.084ZM31.066 10.604C31.33 10.604 31.574 10.528 31.798 10.376C32.03 10.224 32.238 9.996 32.422 9.692V7.34C32.326 7.476 32.186 7.592 32.002 7.688C31.818 7.776 31.618 7.868 31.402 7.964C31.186 8.052 30.978 8.16 30.778 8.288C30.586 8.408 30.426 8.568 30.298 8.768C30.17 8.968 30.106 9.228 30.106 9.548C30.106 9.868 30.19 10.124 30.358 10.316C30.534 10.508 30.77 10.604 31.066 10.604ZM37.0546 4.652C37.3746 4.652 37.6466 4.704 37.8706 4.808C38.0946 4.912 38.2586 5.008 38.3626 5.096C38.6266 5.312 38.7866 5.168 38.8426 4.664H39.1186C39.1026 4.888 39.0906 5.156 39.0826 5.468C39.0746 5.772 39.0706 6.184 39.0706 6.704H38.7946C38.7466 6.408 38.6626 6.12 38.5426 5.84C38.4306 5.56 38.2626 5.332 38.0386 5.156C37.8146 4.972 37.5226 4.88 37.1626 4.88C36.8826 4.88 36.6466 4.96 36.4546 5.12C36.2706 5.272 36.1786 5.5 36.1786 5.804C36.1786 6.044 36.2506 6.252 36.3946 6.428C36.5386 6.596 36.7266 6.756 36.9586 6.908C37.1906 7.052 37.4426 7.212 37.7146 7.388C38.0186 7.58 38.2946 7.776 38.5426 7.976C38.7906 8.176 38.9866 8.396 39.1306 8.636C39.2826 8.876 39.3586 9.16 39.3586 9.488C39.3586 9.856 39.2626 10.164 39.0706 10.412C38.8786 10.66 38.6266 10.848 38.3146 10.976C38.0106 11.104 37.6746 11.168 37.3066 11.168C37.1306 11.168 36.9626 11.152 36.8026 11.12C36.6506 11.096 36.5026 11.056 36.3586 11C36.2786 10.96 36.1946 10.912 36.1066 10.856C36.0266 10.8 35.9466 10.74 35.8666 10.676C35.7866 10.612 35.7146 10.616 35.6506 10.688C35.5866 10.752 35.5386 10.884 35.5066 11.084H35.2306C35.2466 10.828 35.2586 10.516 35.2666 10.148C35.2746 9.78 35.2786 9.292 35.2786 8.684H35.5546C35.6106 9.132 35.6906 9.524 35.7946 9.86C35.8986 10.196 36.0626 10.46 36.2866 10.652C36.5106 10.836 36.8226 10.928 37.2226 10.928C37.3826 10.928 37.5426 10.892 37.7026 10.82C37.8706 10.748 38.0106 10.628 38.1226 10.46C38.2346 10.292 38.2906 10.068 38.2906 9.788C38.2906 9.436 38.1626 9.148 37.9066 8.924C37.6506 8.7 37.3266 8.464 36.9346 8.216C36.6466 8.032 36.3746 7.848 36.1186 7.664C35.8706 7.48 35.6666 7.272 35.5066 7.04C35.3546 6.808 35.2786 6.528 35.2786 6.2C35.2786 5.84 35.3586 5.548 35.5186 5.324C35.6866 5.092 35.9066 4.924 36.1786 4.82C36.4506 4.708 36.7426 4.652 37.0546 4.652ZM43.2378 1.616C43.4618 1.616 43.6578 1.648 43.8258 1.712C44.0018 1.768 44.1538 1.844 44.2818 1.94C44.4018 2.036 44.4938 2.148 44.5578 2.276C44.6218 2.404 44.6538 2.54 44.6538 2.684C44.6538 2.868 44.5938 3.02 44.4738 3.14C44.3538 3.26 44.2018 3.32 44.0178 3.32C43.8418 3.32 43.6858 3.264 43.5498 3.152C43.4218 3.032 43.3578 2.872 43.3578 2.672C43.3578 2.504 43.4018 2.368 43.4898 2.264C43.5858 2.16 43.7098 2.092 43.8618 2.06C43.8378 1.988 43.7738 1.928 43.6698 1.88C43.5738 1.824 43.4418 1.796 43.2738 1.796C43.0898 1.796 42.9298 1.836 42.7938 1.916C42.6658 1.996 42.5658 2.104 42.4938 2.24C42.3978 2.408 42.3378 2.66 42.3138 2.996C42.2898 3.324 42.2778 3.832 42.2778 4.52V4.832H43.5618V5.072H42.2778V9.764C42.2778 10.156 42.3898 10.42 42.6138 10.556C42.8458 10.684 43.1578 10.748 43.5498 10.748V11C43.3658 10.992 43.1058 10.984 42.7698 10.976C42.4338 10.96 42.0778 10.952 41.7018 10.952C41.4298 10.952 41.1578 10.96 40.8858 10.976C40.6218 10.984 40.4218 10.992 40.2858 11V10.748C40.6138 10.748 40.8458 10.688 40.9818 10.568C41.1258 10.448 41.1978 10.22 41.1978 9.884V5.072H40.2378V4.832H41.1978C41.1978 4.36 41.2178 3.964 41.2578 3.644C41.2978 3.324 41.3618 3.052 41.4498 2.828C41.5378 2.596 41.6578 2.392 41.8098 2.216C41.9698 2.032 42.1738 1.888 42.4218 1.784C42.6698 1.672 42.9418 1.616 43.2378 1.616ZM45.9622 11.084C45.6342 11.084 45.3502 11.024 45.1102 10.904C44.8702 10.776 44.6862 10.6 44.5582 10.376C44.4382 10.152 44.3782 9.892 44.3782 9.596C44.3782 9.244 44.4582 8.956 44.6182 8.732C44.7862 8.508 44.9982 8.328 45.2542 8.192C45.5102 8.056 45.7782 7.944 46.0582 7.856C46.3462 7.76 46.6182 7.672 46.8742 7.592C47.1302 7.504 47.3382 7.404 47.4982 7.292C47.6662 7.18 47.7502 7.032 47.7502 6.848V6.104C47.7502 5.768 47.6982 5.512 47.5942 5.336C47.4982 5.16 47.3662 5.044 47.1982 4.988C47.0302 4.924 46.8422 4.892 46.6342 4.892C46.4342 4.892 46.2182 4.92 45.9862 4.976C45.7622 5.032 45.5822 5.148 45.4462 5.324C45.5982 5.356 45.7302 5.436 45.8422 5.564C45.9542 5.692 46.0102 5.856 46.0102 6.056C46.0102 6.256 45.9462 6.416 45.8182 6.536C45.6902 6.648 45.5262 6.704 45.3262 6.704C45.0942 6.704 44.9222 6.632 44.8102 6.488C44.7062 6.336 44.6542 6.168 44.6542 5.984C44.6542 5.776 44.7062 5.608 44.8102 5.48C44.9142 5.352 45.0462 5.232 45.2062 5.12C45.3902 4.992 45.6262 4.884 45.9142 4.796C46.2102 4.7 46.5422 4.652 46.9102 4.652C47.2382 4.652 47.5182 4.692 47.7502 4.772C47.9822 4.844 48.1742 4.952 48.3262 5.096C48.5342 5.288 48.6702 5.524 48.7342 5.804C48.7982 6.076 48.8302 6.404 48.8302 6.788V10.124C48.8302 10.324 48.8582 10.468 48.9142 10.556C48.9782 10.644 49.0742 10.688 49.2022 10.688C49.2902 10.688 49.3742 10.668 49.4542 10.628C49.5342 10.588 49.6302 10.524 49.7422 10.436L49.8742 10.64C49.7062 10.768 49.5462 10.876 49.3942 10.964C49.2422 11.044 49.0382 11.084 48.7822 11.084C48.5502 11.084 48.3582 11.044 48.2062 10.964C48.0542 10.884 47.9382 10.768 47.8582 10.616C47.7862 10.456 47.7502 10.256 47.7502 10.016C47.5342 10.376 47.2742 10.644 46.9702 10.82C46.6742 10.996 46.3382 11.084 45.9622 11.084ZM46.3942 10.604C46.6582 10.604 46.9022 10.528 47.1262 10.376C47.3582 10.224 47.5662 9.996 47.7502 9.692V7.34C47.6542 7.476 47.5142 7.592 47.3302 7.688C47.1462 7.776 46.9462 7.868 46.7302 7.964C46.5142 8.052 46.3062 8.16 46.1062 8.288C45.9142 8.408 45.7542 8.568 45.6262 8.768C45.4982 8.968 45.4342 9.228 45.4342 9.548C45.4342 9.868 45.5182 10.124 45.6862 10.316C45.8622 10.508 46.0982 10.604 46.3942 10.604ZM53.0464 1.616C53.5584 1.616 53.9624 1.7 54.2584 1.868C54.5544 2.036 54.7664 2.324 54.8944 2.732C55.0224 3.132 55.0864 3.684 55.0864 4.388C55.0864 5.14 55.1104 5.724 55.1584 6.14C55.2144 6.556 55.3064 6.852 55.4344 7.028C55.5704 7.196 55.7584 7.288 55.9984 7.304H56.0584V7.52H55.9984C55.7584 7.536 55.5704 7.632 55.4344 7.808C55.3064 7.984 55.2144 8.28 55.1584 8.696C55.1104 9.104 55.0864 9.684 55.0864 10.436C55.0864 11.172 55.0224 11.744 54.8944 12.152C54.7664 12.56 54.5544 12.844 54.2584 13.004C53.9624 13.172 53.5584 13.256 53.0464 13.256V13.028C53.2384 13.028 53.3984 13 53.5264 12.944C53.6544 12.896 53.7504 12.784 53.8144 12.608C53.8864 12.44 53.9344 12.184 53.9584 11.84C53.9904 11.496 54.0064 11.028 54.0064 10.436C54.0064 9.9 54.0504 9.452 54.1384 9.092C54.2344 8.732 54.3624 8.44 54.5224 8.216C54.6824 7.992 54.8664 7.82 55.0744 7.7C55.2824 7.572 55.4984 7.476 55.7224 7.412C55.4984 7.348 55.2824 7.256 55.0744 7.136C54.8664 7.008 54.6824 6.832 54.5224 6.608C54.3624 6.384 54.2344 6.092 54.1384 5.732C54.0504 5.372 54.0064 4.924 54.0064 4.388C54.0064 3.82 53.9904 3.368 53.9584 3.032C53.9344 2.696 53.8864 2.444 53.8144 2.276C53.7504 2.108 53.6544 1.996 53.5264 1.94C53.3984 1.884 53.2384 1.852 53.0464 1.844V1.616Z" fill="url(#paint0_radial_1_2)" shape-rendering="crispEdges"/>
</g>
<defs>
<filter id="filter0_d_1_2" x="0.324" y="0.615997" width="58.7344" height="17.64" filterUnits="userSpaceOnUse" color-interpolation-filters="sRGB">
<feFlood flood-opacity="0" result="BackgroundImageFix"/>
<feColorMatrix in="SourceAlpha" type="matrix" values="0 0 0 0 0 0 0 0 0 0 0 0 0 0 0 0 0 0 127 0" result="hardAlpha"/>
<feOffset dy="2"/>
<feGaussianBlur stdDeviation="1.5"/>
<feComposite in2="hardAlpha" operator="out"/>
<feColorMatrix type="matrix" values="0 0 0 0 0.292564 0 0 0 0 0.354105 0 0 0 0 0.454808 0 0 0 0.5 0"/>
<feBlend mode="normal" in2="BackgroundImageFix" result="effect1_dropShadow_1_2"/>
<feBlend mode="normal" in="SourceGraphic" in2="effect1_dropShadow_1_2" result="shape"/>
</filter>
<radialGradient id="paint0_radial_1_2" cx="0" cy="0" r="1" gradientUnits="userSpaceOnUse" gradientTransform="translate(6 -1.01576e-06) rotate(17.7097) scale(62.46 62.46)">
<stop offset="0.41568" stop-color="#BDD4FF" stop-opacity="0.8"/>
<stop offset="1" stop-color="#8BB7FF" stop-opacity="0.9"/>
</radialGradient>
</defs>
</svg>
